<svg width="25" height="21" viewBox="0 0 25 21" fill="none" xmlns="http://www.w3.org/2000/svg">
<path d="M24.1953 0.389779C22.704 2.15302 18.9361 5.31515 11.2034 5.06145H3.49687C1.56568 5.06145 0 6.6276 0 8.55808V9.43254C0 11.3638 1.56568 12.929 3.49687 12.929H5.40937L9.47273 19.6153C9.87363 20.2758 10.7602 20.5336 11.4532 20.1916L13.1393 19.3598C13.8324 19.0195 14.068 18.2074 13.6656 17.5478L10.8453 12.9285H11.2022C18.9353 12.6754 22.7038 15.837 24.1938 17.6008C24.6935 18.1912 25 18.1162 25 17.3435V0.647492C25 -0.125174 24.6935 -0.200246 24.1953 0.389779ZM6.93477 10.4958H3.26292C2.97366 10.4958 2.73848 10.2609 2.73848 9.97096C2.73848 9.68158 2.97366 9.44639 3.26292 9.44639H6.93477C7.22462 9.44639 7.45921 9.68152 7.45921 9.97096C7.45916 10.2609 7.22462 10.4958 6.93477 10.4958ZM6.93477 8.16467H3.26292C2.97366 8.16467 2.73848 7.93014 2.73848 7.64028C2.73848 7.3509 2.97366 7.11536 3.26292 7.11536H6.93477C7.22462 7.11536 7.45921 7.3509 7.45921 7.64028C7.45916 7.93014 7.22462 8.16467 6.93477 8.16467Z" fill="white"/>
</svg>
