<svg width="18" height="16" viewBox="0 0 18 16" fill="none" xmlns="http://www.w3.org/2000/svg">
<g clip-path="url(#clip0_19_1995)">
<path d="M8.7222 1.83333H11.4112C11.4817 1.83333 11.5493 1.86077 11.5991 1.90961C11.649 1.95844 11.677 2.02468 11.677 2.09375V12.4427C11.677 12.5118 11.649 12.578 11.5991 12.6268C11.5493 12.6757 11.4817 12.7031 11.4112 12.7031H8.7222C8.65169 12.7031 8.58407 12.6757 8.53422 12.6268C8.48437 12.578 8.45636 12.5118 8.45636 12.4427V2.08333C8.45636 2.01427 8.48437 1.94803 8.53422 1.89919C8.58407 1.85035 8.65169 1.82292 8.7222 1.82292V1.83333ZM18 16H1.31989C1.14693 16.0007 0.97552 15.9679 0.815501 15.9036C0.655482 15.8393 0.509995 15.7446 0.387379 15.6251C0.264763 15.5056 0.167429 15.3636 0.100955 15.2071C0.0344804 15.0507 0.000173478 14.883 0 14.7135H0V0H1.68675V14.3477H18V16ZM13.6974 7.00521H16.3864C16.4569 7.00521 16.5245 7.03264 16.5743 7.08148C16.6242 7.13032 16.6522 7.19656 16.6522 7.26562V12.4427C16.6522 12.5118 16.6242 12.578 16.5743 12.6268C16.5245 12.6757 16.4569 12.7031 16.3864 12.7031H13.6974C13.6269 12.7031 13.5593 12.6757 13.5094 12.6268C13.4596 12.578 13.4315 12.5118 13.4315 12.4427V7.25911C13.4315 7.19005 13.4596 7.12381 13.5094 7.07497C13.5593 7.02613 13.6269 6.9987 13.6974 6.9987V7.00521ZM3.74701 3.83333H6.43598C6.50419 3.83498 6.56914 3.86226 6.61739 3.90953C6.66564 3.95679 6.69349 4.02042 6.69517 4.08724V12.4427C6.69519 12.5107 6.6681 12.5759 6.61967 12.6246C6.57125 12.6732 6.50532 12.7014 6.43598 12.7031H3.74701C3.6765 12.7031 3.60889 12.6757 3.55903 12.6268C3.50918 12.578 3.48117 12.5118 3.48117 12.4427V4.08724C3.4829 4.01931 3.51168 3.95473 3.56134 3.90729C3.61101 3.85985 3.67764 3.83331 3.74701 3.83333Z" fill="#00D4FE"/>
</g>
<defs>
<clipPath id="clip0_19_1995">
<rect width="18" height="16" fill="white"/>
</clipPath>
</defs>
</svg>
