<svg width="16" height="22" viewBox="0 0 16 22" fill="none" xmlns="http://www.w3.org/2000/svg">
<path fill-rule="evenodd" clip-rule="evenodd" d="M2.04189 5.55013L16 9.03776L13.9581 16.4445L0 12.9622L2.04189 5.55013ZM15.2819 4.94499L10.2058 6.62435L11.0472 4.979C9.13234 3.51807 7.2046 3.17611 5.11853 4.13753C6.99655 0.997233 10.0824 0.537109 12.7337 1.68473L13.5936 0L15.2819 4.94499ZM0.736479 17.0568L5.80529 15.3721L4.96018 17.0228C6.87503 18.4837 8.80276 18.8239 10.8907 17.8643C9.00898 21.0028 5.92865 21.4665 3.27917 20.3153L2.41749 22L0.725432 17.0568H0.736479ZM8.61496 8.82113C9.05705 8.93828 9.45357 9.18011 9.7545 9.51612C10.0554 9.85213 10.2473 10.2673 10.3059 10.7092C10.3645 11.1511 10.2872 11.6 10.0837 11.9992C9.88026 12.3985 9.55979 12.7302 9.1627 12.9525C8.76562 13.1749 8.30971 13.2779 7.85249 13.2486C7.39526 13.2193 6.9572 13.059 6.59355 12.7879C6.2299 12.5168 5.95695 12.1471 5.80913 11.7254C5.66131 11.3036 5.64524 10.8487 5.76295 10.4181C5.84114 10.1316 5.97677 9.86298 6.16204 9.6276C6.34731 9.39221 6.57858 9.19474 6.84256 9.04651C7.10654 8.89828 7.39803 8.80223 7.7003 8.76386C8.00256 8.72549 8.30965 8.74556 8.60391 8.82292L8.61496 8.82113ZM4.19609 7.3208L13.229 9.52474C13.1497 9.81485 13.1921 10.1237 13.3467 10.3835C13.5013 10.6433 13.7557 10.8328 14.0539 10.9105L13.2566 13.8395C12.958 13.7624 12.6402 13.8035 12.3727 13.9538C12.1052 14.1042 11.91 14.3515 11.8297 14.6416L2.771 12.4395C2.81051 12.2958 2.8205 12.146 2.80042 11.9986C2.78034 11.8511 2.73057 11.709 2.65396 11.5803C2.57735 11.4516 2.47541 11.3389 2.35396 11.2485C2.2325 11.1582 2.09393 11.092 1.94614 11.0537L2.75075 8.12467C3.04981 8.2019 3.36815 8.16088 3.63621 8.01059C3.90427 7.8603 4.10026 7.61296 4.18136 7.32259L4.19609 7.3208Z" fill="white"/>
</svg>
