<svg width="16" height="17" viewBox="0 0 16 17" fill="none" xmlns="http://www.w3.org/2000/svg">
<path fill-rule="evenodd" clip-rule="evenodd" d="M12.3859 1.93132V3.00073H14.0707H14.072V3.0035C14.6041 3.00488 15.0865 3.2207 15.4347 3.57072C15.7803 3.91797 15.9959 4.39803 15.9972 4.92928H16V4.93205V15.0687V15.0701H15.9972C15.9959 15.6013 15.7803 16.0841 15.4306 16.4342C15.0837 16.78 14.6041 16.9958 14.0734 16.9972V17H14.0707H5.54341H5.54202V16.9972C5.01132 16.9958 4.5276 16.78 4.17932 16.43C3.83381 16.0828 3.61821 15.6027 3.61683 15.0715H3.61406V15.0687V12.7984H1.92934H1.92796V12.7957C1.39725 12.7943 0.913536 12.5785 0.565259 12.2284C0.219746 11.8812 0.00414615 11.4011 0.0027641 10.8699H0V10.8671V1.93132V1.92993H0.0027641C0.00414615 1.3973 0.221128 0.914469 0.569405 0.565837C0.9163 0.219971 1.39587 0.00415039 1.92658 0.00276693V0H1.92934H10.4566H10.458V0.00276693C10.9901 0.00415039 11.4724 0.219971 11.8207 0.569987C12.1662 0.917236 12.3818 1.3973 12.3832 1.92855H12.3859V1.93132ZM10.9237 3.00073V1.93132V1.92855H10.9265C10.9265 1.80265 10.8726 1.68644 10.7869 1.60067C10.7026 1.51628 10.5851 1.46232 10.4594 1.46232V1.46509H10.458H1.93072H1.92796V1.46232C1.80219 1.46232 1.6861 1.51628 1.60041 1.60205C1.51611 1.68644 1.46221 1.80404 1.46221 1.92993H1.46497V1.93132V10.8671V10.8699H1.46221C1.46221 10.9958 1.51611 11.112 1.6018 11.1978C1.6861 11.2821 1.80358 11.3361 1.92934 11.3361V11.3333H1.93072H3.61544V4.93205V4.93066H3.61821C3.61959 4.39803 3.83657 3.9152 4.18485 3.56657C4.53174 3.2207 5.01132 3.00488 5.54202 3.0035V3.00073H5.54479H10.9237ZM14.5364 15.0687V4.93205V4.92928H14.5392C14.5392 4.80339 14.4853 4.68717 14.3996 4.6014C14.3153 4.51701 14.1978 4.46305 14.072 4.46305V4.46582H14.0707H5.54341H5.54064V4.46305C5.41487 4.46305 5.29878 4.51701 5.2131 4.60278C5.12879 4.68717 5.07489 4.80477 5.07489 4.93066H5.07765V4.93205V15.0687V15.0715H5.07489C5.07489 15.1973 5.12879 15.3136 5.21448 15.3993C5.29878 15.4837 5.41626 15.5377 5.54202 15.5377V15.5349H5.54341H14.0707H14.0734V15.5377C14.1992 15.5377 14.3153 15.4837 14.401 15.398C14.4853 15.3136 14.5392 15.196 14.5392 15.0701H14.5364V15.0687Z" fill="white"/>
</svg>
