<svg width="12" height="18" viewBox="0 0 12 18" fill="none" xmlns="http://www.w3.org/2000/svg">
<g clip-path="url(#clip0_19_1713)">
<path fill-rule="evenodd" clip-rule="evenodd" d="M4.95607 0C7.44112 6.14355 -0.226686 6.16406 0.0058005 12.5156C0.163154 16.8105 3.0097 18.3794 5.88885 17.9238C5.80521 17.8608 5.72157 17.792 5.64077 17.7231C4.75618 16.9585 4.31531 15.9814 4.31531 14.6895C4.31531 12.1128 6.73799 12.6226 5.75418 9.81006L5.76552 9.81445L5.76268 9.81006C5.9895 9.95947 6.18938 10.1089 6.36516 10.2627C7.35465 11.1255 7.96847 12.6387 7.59706 14.0801C7.16185 15.7603 5.51602 15.7251 6.15536 17.877C9.04868 17.2954 11.8924 14.6924 12.0001 10.7739C11.735 8.15039 9.48672 7.42676 10.6931 4.64209C9.1465 4.74609 8.77367 5.60449 8.77792 7.49414C8.96788 9.92139 5.00426 9.55957 7.08105 6.5918C8.86723 4.0415 7.11082 1.41943 4.95607 0Z" fill="white"/>
</g>
<defs>
<clipPath id="clip0_19_1713">
<rect width="12" height="18" fill="white"/>
</clipPath>
</defs>
</svg>
