<svg width="11" height="15" viewBox="0 0 11 15" fill="none" xmlns="http://www.w3.org/2000/svg">
<path d="M9.81379 6.0132H9.20043V3.58308C9.20043 1.79255 7.74883 0.340942 5.95829 0.340942H5.37726C3.58673 0.340942 2.13512 1.79255 2.13512 3.58308V6.0132H1.52176C0.944916 6.0132 0.477295 6.48082 0.477295 7.05767V13.7737C0.477295 14.3506 0.944916 14.8182 1.52176 14.8182H9.81395C10.3908 14.8182 10.8584 14.3506 10.8584 13.7737V7.05767C10.8584 6.48082 10.3908 6.0132 9.81379 6.0132ZM6.23851 10.4319V11.9721C6.23851 12.2872 5.98306 12.5428 5.66778 12.5428C5.35249 12.5428 5.09704 12.2874 5.09704 11.9721V10.4319C4.75473 10.2075 4.55205 9.78795 4.64921 9.33079C4.7327 8.93861 5.05023 8.6222 5.44257 8.54016C6.1169 8.39924 6.71064 8.90997 6.71064 9.55953C6.71064 9.92468 6.52259 10.2456 6.23851 10.4319ZM3.42088 6.0132V4.02786C3.42088 2.70173 4.49591 1.6267 5.82204 1.6267C6.97782 1.6267 7.91468 2.56355 7.91468 3.71933V6.0132H3.42088Z" fill="#FFBA2A"/>
</svg>
