<svg width="22" height="22" viewBox="0 0 22 22" fill="none" xmlns="http://www.w3.org/2000/svg">
<path d="M10.4344 5.53267C10.1876 5.56058 10.0093 5.78216 10.0363 6.02988C10.0642 6.27667 10.2804 6.45413 10.5335 6.428C12.0359 6.26405 13.5122 6.78018 14.5796 7.84667C15.6461 8.91406 16.1631 10.3886 15.9974 11.8928C15.9695 12.1405 16.1487 12.363 16.3955 12.39C16.4117 12.3918 16.4288 12.3927 16.4451 12.3927C16.672 12.3927 16.8666 12.2225 16.8918 11.991C17.0873 10.2138 16.4765 8.47085 15.2155 7.20983C13.9545 5.94882 12.2143 5.33904 10.4344 5.53267Z" fill="#FFBA2B"/>
<path d="M11.2073 16.2975C9.82373 16.3416 8.54017 15.8219 7.57277 14.8536C6.60537 13.8853 6.09194 12.5946 6.12889 11.2191C6.13518 10.9705 5.93884 10.7633 5.69024 10.757C5.47224 10.7697 5.23445 10.9471 5.22815 11.1957C5.18581 12.8215 5.79111 14.3465 6.93597 15.4904C8.04207 16.5965 9.50491 17.2001 11.0695 17.2001C11.1227 17.2001 11.1767 17.2001 11.2308 17.1982C11.4794 17.192 11.6757 16.9848 11.6694 16.7362C11.6631 16.4867 11.4451 16.302 11.2073 16.2975Z" fill="#FFBA2B"/>
<path d="M19.9949 9.18703C19.5707 8.81594 19.132 8.43222 18.9843 8.07641C18.8249 7.6927 18.8618 7.0901 18.8978 6.50823C18.9537 5.58858 19.0122 4.63917 18.4006 4.02669C17.789 3.4151 16.8387 3.47454 15.9191 3.52948C15.3354 3.5646 14.7337 3.60062 14.3509 3.443C13.9951 3.29527 13.6114 2.85662 13.2403 2.43237C12.6502 1.75765 11.9801 0.992032 11.0757 0.992032C10.1714 0.992032 9.50121 1.75765 8.91212 2.43144C8.54103 2.85569 8.15731 3.29434 7.8015 3.44208C7.41778 3.60151 6.81519 3.56456 6.23332 3.52855C5.31367 3.47362 4.36337 3.41324 3.75178 4.02576C3.14018 4.63828 3.19782 5.58765 3.25456 6.5073C3.28969 7.0901 3.32664 7.69177 3.16809 8.07548C3.02036 8.43129 2.58171 8.81501 2.15746 9.1861C1.48278 9.77612 0.717163 10.4463 0.717163 11.3506C0.717163 12.2549 1.48278 12.9251 2.15657 13.5142C2.58082 13.8853 3.01947 14.269 3.16721 14.6248C3.32664 15.0085 3.28969 15.6111 3.25368 16.193C3.19782 17.1127 3.1393 18.0621 3.75089 18.6746C4.36341 19.2871 5.31367 19.2276 6.23243 19.1718C6.8143 19.1357 7.4169 19.0988 7.80062 19.2582C8.15642 19.406 8.54014 19.8446 8.91124 20.2689C9.50121 20.9435 10.1714 21.7092 11.0757 21.7092C11.9801 21.7092 12.6502 20.9435 13.2393 20.2698C13.6104 19.8455 13.9941 19.4069 14.35 19.2591C14.7337 19.1006 15.3354 19.1366 15.9181 19.1726C16.8369 19.2276 17.7881 19.287 18.3997 18.6754C19.0113 18.0629 18.9536 17.1135 18.8969 16.1939C18.8618 15.6111 18.8248 15.0094 18.9834 14.6257C19.1311 14.2699 19.5697 13.8862 19.994 13.5151C20.6687 12.9251 21.4343 12.255 21.4343 11.3506C21.4343 10.4462 20.6687 9.77612 19.9949 9.18703ZM19.4004 12.8378C18.8987 13.2773 18.379 13.7313 18.1511 14.2816C17.9124 14.8572 17.9557 15.5652 17.998 16.2498C18.0421 16.9694 18.0872 17.7135 17.7629 18.0386C17.4386 18.3638 16.6928 18.3188 15.974 18.2737C15.2894 18.2323 14.5815 18.1881 14.0059 18.4269C13.4555 18.6547 13.0015 19.1736 12.562 19.6762C12.0756 20.2329 11.5712 20.8084 11.0758 20.8084C10.5804 20.8084 10.0759 20.2329 9.58954 19.6762C9.14996 19.1745 8.69599 18.6547 8.14566 18.4269C7.79437 18.281 7.39444 18.2404 6.98011 18.2404C6.71529 18.2404 6.44418 18.2566 6.17665 18.2728C5.45786 18.317 4.71293 18.3629 4.38777 18.0377C4.06262 17.7126 4.10856 16.9685 4.15268 16.2489C4.19503 15.5643 4.23826 14.8563 3.99954 14.2808C3.77166 13.7304 3.25283 13.2764 2.75022 12.8369C2.19356 12.3505 1.61798 11.846 1.61798 11.3506C1.61798 10.8552 2.19356 10.3508 2.7511 9.86352C3.25283 9.42394 3.77255 8.96997 4.00042 8.41964C4.23911 7.84406 4.19587 7.13608 4.15357 6.45152C4.10944 5.73184 4.06439 4.9878 4.38866 4.66264C4.71382 4.33749 5.46056 4.38431 6.17754 4.42755C6.86391 4.47078 7.57101 4.51313 8.14566 4.27441C8.69603 4.04653 9.15 3.5277 9.58954 3.02509C10.0759 2.46843 10.5804 1.89285 11.0758 1.89285C11.5712 1.89285 12.0756 2.46843 12.5629 3.02597C13.0025 3.5277 13.4564 4.04742 14.0068 4.27529C14.5823 4.51398 15.2894 4.47167 15.9749 4.42843C16.6937 4.38431 17.4395 4.33926 17.7638 4.66353C18.0889 4.98868 18.043 5.73273 17.9989 6.45241C17.9565 7.13696 17.9133 7.84495 18.152 8.42053C18.3799 8.9709 18.8987 9.42487 19.4013 9.86441C19.958 10.3508 20.5336 10.8552 20.5336 11.3506C20.5336 11.846 19.958 12.3504 19.4004 12.8378Z" fill="#FFBA2B"/>
</svg>
