<svg width="32" height="30" viewBox="0 0 32 30" fill="none" xmlns="http://www.w3.org/2000/svg">
<path d="M29.5019 1L17.8015 9.70393L19.9775 4.56718L29.5019 1Z" fill="#E17726" stroke="#E17726" stroke-linecap="round" stroke-linejoin="round"/>
<path d="M2.4624 1L14.0914 9.77527L12.0225 4.56718L2.4624 1Z" fill="#E27625" stroke="#E27625" stroke-linecap="round" stroke-linejoin="round"/>
<path d="M25.2927 21.1545L22.1536 25.9346L28.8599 27.7895L30.7505 21.2616L25.2927 21.1545Z" fill="#E27625" stroke="#E27625" stroke-linecap="round" stroke-linejoin="round"/>
<path d="M1.24976 21.2616L3.14036 27.7895L9.81099 25.9346L6.70755 21.1545L1.24976 21.2616Z" fill="#E27625" stroke="#E27625" stroke-linecap="round" stroke-linejoin="round"/>
<path d="M9.4543 13.0927L7.59937 15.9108L14.1987 16.1961L13.9846 9.06177L9.4543 13.0927Z" fill="#E27625" stroke="#E27625" stroke-linecap="round" stroke-linejoin="round"/>
<path d="M22.5459 13.0927L17.9442 8.99048L17.8015 16.1962L24.4008 15.9108L22.5459 13.0927Z" fill="#E27625" stroke="#E27625" stroke-linecap="round" stroke-linejoin="round"/>
<path d="M9.81104 25.9346L13.8063 24.0083L10.3461 21.2972L9.81104 25.9346Z" fill="#E27625" stroke="#E27625" stroke-linecap="round" stroke-linejoin="round"/>
<path d="M18.1941 24.0083L22.1537 25.9346L21.6186 21.2972L18.1941 24.0083Z" fill="#E27625" stroke="#E27625" stroke-linecap="round" stroke-linejoin="round"/>
<path d="M22.1532 25.9347L18.1936 24.0084L18.5147 26.5768L18.479 27.6826L22.1532 25.9347Z" fill="#D5BFB2" stroke="#D5BFB2" stroke-linecap="round" stroke-linejoin="round"/>
<path d="M9.81079 25.9347L13.5207 27.6826L13.485 26.5768L13.806 24.0084L9.81079 25.9347Z" fill="#D5BFB2" stroke="#D5BFB2" stroke-linecap="round" stroke-linejoin="round"/>
<path d="M13.5921 19.5851L10.2747 18.6219L12.5933 17.5518L13.5921 19.5851Z" fill="#233447" stroke="#233447" stroke-linecap="round" stroke-linejoin="round"/>
<path d="M18.408 19.5851L19.3711 17.5518L21.7254 18.6219L18.408 19.5851Z" fill="#233447" stroke="#233447" stroke-linecap="round" stroke-linejoin="round"/>
<path d="M9.81097 25.9346L10.3817 21.1545L6.70752 21.2616L9.81097 25.9346Z" fill="#CC6228" stroke="#CC6228" stroke-linecap="round" stroke-linejoin="round"/>
<path d="M21.6184 21.1545L22.1535 25.9346L25.2926 21.2616L21.6184 21.1545Z" fill="#CC6228" stroke="#CC6228" stroke-linecap="round" stroke-linejoin="round"/>
<path d="M24.4008 15.9109L17.8015 16.1963L18.4079 19.5851L19.3711 17.5518L21.7254 18.6219L24.4008 15.9109Z" fill="#CC6228" stroke="#CC6228" stroke-linecap="round" stroke-linejoin="round"/>
<path d="M10.2745 18.6219L12.5932 17.5518L13.592 19.5851L14.1984 16.1963L7.59912 15.9109L10.2745 18.6219Z" fill="#CC6228" stroke="#CC6228" stroke-linecap="round" stroke-linejoin="round"/>
<path d="M7.59937 15.9108L10.3461 21.2972L10.2748 18.6218L7.59937 15.9108Z" fill="#E27525" stroke="#E27525" stroke-linecap="round" stroke-linejoin="round"/>
<path d="M21.7257 18.6218L21.6187 21.2972L24.4011 15.9108L21.7257 18.6218Z" fill="#E27525" stroke="#E27525" stroke-linecap="round" stroke-linejoin="round"/>
<path d="M14.1987 16.1962L13.5923 19.585L14.3414 23.6159L14.5198 18.3008L14.1987 16.1962Z" fill="#E27525" stroke="#E27525" stroke-linecap="round" stroke-linejoin="round"/>
<path d="M17.8015 16.1962L17.4805 18.3008L17.6232 23.6159L18.4079 19.585L17.8015 16.1962Z" fill="#E27525" stroke="#E27525" stroke-linecap="round" stroke-linejoin="round"/>
<path d="M18.4078 19.5851L17.623 23.616L18.1938 24.0084L21.6183 21.2973L21.7253 18.6219L18.4078 19.5851Z" fill="#F5841F" stroke="#F5841F" stroke-linecap="round" stroke-linejoin="round"/>
<path d="M10.2747 18.6219L10.346 21.2973L13.8062 24.0084L14.3412 23.616L13.5921 19.5851L10.2747 18.6219Z" fill="#F5841F" stroke="#F5841F" stroke-linecap="round" stroke-linejoin="round"/>
<path d="M18.4793 27.6826L18.515 26.5768L18.1939 26.3271H13.7706L13.4852 26.5768L13.5209 27.6826L9.81104 25.9347L11.0952 27.0048L13.7349 28.8241H18.2296L20.8693 27.0048L22.1535 25.9347L18.4793 27.6826Z" fill="#C0AC9D" stroke="#C0AC9D" stroke-linecap="round" stroke-linejoin="round"/>
<path d="M18.1938 24.0082L17.623 23.6158H14.3412L13.8062 24.0082L13.4851 26.5766L13.7705 26.3269H18.1938L18.5148 26.5766L18.1938 24.0082Z" fill="#161616" stroke="#161616" stroke-linecap="round" stroke-linejoin="round"/>
<path d="M30.0012 10.2747L31 5.45898L29.5018 1L18.1938 9.41855L22.5458 13.0927L28.6814 14.8763L30.0369 13.3068L29.4661 12.8787L30.3936 12.0226L29.6802 11.4518L30.6076 10.7384L30.0012 10.2747Z" fill="#763E1A" stroke="#763E1A" stroke-linecap="round" stroke-linejoin="round"/>
<path d="M1 5.45898L1.99881 10.2747L1.35672 10.7384L2.28419 11.4518L1.57075 12.0226L2.53389 12.8787L1.92747 13.3068L3.283 14.8763L9.45422 13.0927L13.8062 9.41855L2.46254 1L1 5.45898Z" fill="#763E1A" stroke="#763E1A" stroke-linecap="round" stroke-linejoin="round"/>
<path d="M28.6814 14.8764L22.5459 13.0928L24.4008 15.9108L21.6184 21.2973L25.2926 21.2616H30.7504L28.6814 14.8764Z" fill="#F5841F" stroke="#F5841F" stroke-linecap="round" stroke-linejoin="round"/>
<path d="M9.45403 13.0928L3.28281 14.8764L1.24951 21.2616H6.7073L10.3458 21.2973L7.5991 15.9108L9.45403 13.0928Z" fill="#F5841F" stroke="#F5841F" stroke-linecap="round" stroke-linejoin="round"/>
<path d="M17.8015 16.1962L18.1939 9.41851L19.9775 4.56714H12.0227L13.8063 9.41851L14.1987 16.1962L14.3414 18.3365V23.6159H17.6232V18.3365L17.8015 16.1962Z" fill="#F5841F" stroke="#F5841F" stroke-linecap="round" stroke-linejoin="round"/>
</svg>
