<svg width="131" height="17" viewBox="0 0 131 17" fill="none" xmlns="http://www.w3.org/2000/svg">
<path d="M109.925 8.40676C108.991 7.76988 107.972 7.3453 106.953 6.79334C106.316 6.45367 105.637 6.11401 105.085 5.64696C104.151 4.88271 104.32 3.35421 105.339 2.67488C106.741 1.74079 109.076 2.25029 109.331 4.16092C109.331 4.20338 109.373 4.24584 109.415 4.24584H111.538C111.581 4.24584 111.623 4.20338 111.623 4.16092C111.496 2.84471 110.986 1.74079 110.052 1.019C109.161 0.339664 108.142 0 107.038 0C101.433 0 100.924 5.94417 103.938 7.81234C104.278 8.02463 107.25 9.51067 108.312 10.19C109.373 10.8269 109.67 12.0157 109.246 12.9498C108.821 13.799 107.76 14.3934 106.698 14.3085C105.509 14.2236 104.618 13.5867 104.278 12.6101C104.236 12.4403 104.193 12.1006 104.193 11.9308C104.193 11.8883 104.151 11.8459 104.108 11.8459H101.815C101.773 11.8459 101.73 11.8883 101.73 11.9308C101.73 13.5867 102.155 14.5208 103.259 15.3699C104.32 16.1766 105.467 16.5163 106.698 16.5163C109.84 16.5163 111.453 14.7331 111.793 12.9073C112.048 11.1241 111.538 9.51068 109.925 8.40676Z" fill="#F5841F"/>
<path d="M9.85035 0.339691H8.83134H7.72743C7.68497 0.339691 7.64251 0.382146 7.64251 0.382146L5.73188 6.62353C5.68942 6.70844 5.60451 6.70844 5.56205 6.62353L3.65142 0.382146C3.65142 0.339687 3.60897 0.339691 3.56651 0.339691H2.46259H1.44359H0.0849219C0.0424636 0.339691 0 0.382148 0 0.424607V16.3465C0 16.389 0.0424636 16.4314 0.0849219 16.4314H2.37767C2.42013 16.4314 2.46259 16.389 2.46259 16.3465V4.24586C2.46259 4.16094 2.58997 4.11848 2.63242 4.2034L4.54305 10.4872L4.67042 10.9118C4.67042 10.9543 4.71288 10.9543 4.75534 10.9543H6.53859C6.58105 10.9543 6.62351 10.9118 6.62351 10.9118L6.75088 10.4872L8.66151 4.2034C8.70397 4.11848 8.83134 4.11848 8.83134 4.24586V16.3465C8.83134 16.389 8.8738 16.4314 8.91626 16.4314H11.209C11.2515 16.4314 11.2939 16.389 11.2939 16.3465V0.424607C11.2939 0.382148 11.2515 0.339691 11.209 0.339691H9.85035Z" fill="#F5841F"/>
<path d="M74.642 0.339691C74.5995 0.339691 74.557 0.382146 74.557 0.382146L72.6464 6.62353C72.604 6.70844 72.519 6.70844 72.4766 6.62353L70.566 0.382146C70.566 0.339687 70.5235 0.339691 70.481 0.339691H66.957C66.9145 0.339691 66.8721 0.382148 66.8721 0.424607V16.3465C66.8721 16.389 66.9145 16.4314 66.957 16.4314H69.2497C69.2922 16.4314 69.3347 16.389 69.3347 16.3465V4.24586C69.3347 4.16094 69.462 4.11848 69.5045 4.2034L71.4151 10.4872L71.5425 10.9118C71.5425 10.9543 71.585 10.9543 71.6274 10.9543H73.4107C73.4531 10.9543 73.4956 10.9118 73.4956 10.9118L73.6229 10.4872L75.5336 4.2034C75.576 4.11848 75.7034 4.11848 75.7034 4.24586V16.3465C75.7034 16.389 75.7459 16.4314 75.7883 16.4314H78.0811C78.1235 16.4314 78.166 16.389 78.166 16.3465V0.424607C78.166 0.382148 78.1235 0.339691 78.0811 0.339691H74.642Z" fill="#F5841F"/>
<path d="M44.921 0.339691H40.6327H38.34H34.0092C33.9668 0.339691 33.9243 0.382148 33.9243 0.424607V2.42015C33.9243 2.46261 33.9668 2.50506 34.0092 2.50506H38.2126V16.3465C38.2126 16.389 38.2551 16.4314 38.2975 16.4314H40.5903C40.6327 16.4314 40.6752 16.389 40.6752 16.3465V2.50506H44.8786C44.921 2.50506 44.9635 2.46261 44.9635 2.42015V0.424607C45.006 0.382148 44.9635 0.339691 44.921 0.339691Z" fill="#F5841F"/>
<path d="M58.5077 16.4313H60.5881C60.6306 16.4313 60.673 16.3888 60.673 16.3039L56.3423 0.33955C56.3423 0.297091 56.2998 0.297089 56.2574 0.297089H55.4507H54.0495H53.2428C53.2004 0.297089 53.1579 0.33955 53.1579 0.33955L48.8271 16.3039C48.8271 16.3464 48.8696 16.4313 48.9121 16.4313H50.9925C51.035 16.4313 51.0774 16.3888 51.0774 16.3888L52.3512 11.7184C52.3512 11.6759 52.3937 11.6759 52.4361 11.6759H57.0641C57.1065 11.6759 57.149 11.7184 57.149 11.7184L58.4227 16.3888C58.4227 16.3888 58.4652 16.4313 58.5077 16.4313ZM52.9881 9.38318L54.6864 3.1418C54.7289 3.05688 54.8138 3.05688 54.8562 3.1418L56.5546 9.38318C56.5546 9.42564 56.5121 9.51055 56.4697 9.51055H53.1154C53.0305 9.51055 52.9881 9.42564 52.9881 9.38318Z" fill="#F5841F"/>
<path d="M94.2577 16.4313H96.3381C96.3806 16.4313 96.423 16.3888 96.423 16.3039L92.0923 0.33955C92.0923 0.297091 92.0498 0.297089 92.0074 0.297089H91.2007H89.7995H88.9928C88.9504 0.297089 88.9079 0.33955 88.9079 0.33955L84.5771 16.3039C84.5771 16.3464 84.6196 16.4313 84.6621 16.4313H86.7425C86.785 16.4313 86.8274 16.3888 86.8274 16.3888L88.1012 11.7184C88.1012 11.6759 88.1437 11.6759 88.1861 11.6759H92.8141C92.8565 11.6759 92.899 11.7184 92.899 11.7184L94.1727 16.3888C94.1727 16.3888 94.2152 16.4313 94.2577 16.4313ZM88.7381 9.38318L90.4364 3.1418C90.4789 3.05688 90.5638 3.05688 90.6062 3.1418L92.3046 9.38318C92.3046 9.42564 92.2621 9.51055 92.2197 9.51055H88.8654C88.7805 9.51055 88.7381 9.42564 88.7381 9.38318Z" fill="#F5841F"/>
<path d="M20.635 14.0537V9.12857C20.635 9.08611 20.6774 9.04366 20.7199 9.04366H26.8763C26.9188 9.04366 26.9612 9.00119 26.9612 8.95874V6.96319C26.9612 6.92074 26.9188 6.87828 26.8763 6.87828H20.7199C20.6774 6.87828 20.635 6.83582 20.635 6.79336V2.58998C20.635 2.54752 20.6774 2.50506 20.7199 2.50506H27.683C27.7255 2.50506 27.768 2.46261 27.768 2.42015V0.424607C27.768 0.382148 27.7255 0.339691 27.683 0.339691H20.635H18.2573C18.2148 0.339691 18.1724 0.382148 18.1724 0.424607V2.50506V6.92074V9.08611V14.1811V16.3465C18.1724 16.389 18.2148 16.4314 18.2573 16.4314H20.635H27.9803C28.0227 16.4314 28.0652 16.389 28.0652 16.3465V14.266C28.0652 14.2236 28.0227 14.1811 27.9803 14.1811H20.6774C20.6774 14.1387 20.635 14.0962 20.635 14.0537Z" fill="#F5841F"/>
<path d="M130.984 16.2614L123.002 8.02451C122.96 7.98205 122.96 7.93959 123.002 7.89713L130.177 0.424465C130.22 0.382007 130.177 0.297089 130.135 0.297089H127.205C127.163 0.297089 127.163 0.297091 127.163 0.33955L121.049 6.70831C121.006 6.75076 120.922 6.7083 120.922 6.66584V0.46692C120.922 0.424461 120.879 0.382004 120.837 0.382004H118.501C118.459 0.382004 118.417 0.424461 118.417 0.46692V16.3888C118.417 16.4313 118.459 16.4737 118.501 16.4737H120.794C120.837 16.4737 120.879 16.4313 120.879 16.3888V9.38318C120.879 9.29826 120.964 9.25581 121.006 9.34072L127.885 16.4737L127.927 16.5162H130.857C130.984 16.4313 131.027 16.3039 130.984 16.2614Z" fill="#F5841F"/>
</svg>
