<svg width="12" height="18" viewBox="0 0 12 18" fill="none" xmlns="http://www.w3.org/2000/svg">
<path d="M11.2679 11.184C11.2679 12.18 10.9079 13.044 10.1879 13.776C9.47993 14.496 8.44793 14.958 7.09193 15.162V17.16H4.93193V15.234C4.03193 15.174 3.17993 15.024 2.37593 14.784C1.57193 14.532 0.90593 14.226 0.37793 13.866L1.54793 11.238C2.11193 11.61 2.76593 11.91 3.50993 12.138C4.25393 12.366 4.98593 12.48 5.70593 12.48C7.07393 12.48 7.75793 12.138 7.75793 11.454C7.75793 11.094 7.55993 10.83 7.16393 10.662C6.77993 10.482 6.15593 10.296 5.29193 10.104C4.34393 9.89999 3.55193 9.68399 2.91593 9.45599C2.27993 9.21599 1.73393 8.83799 1.27793 8.32199C0.82193 7.80599 0.59393 7.10999 0.59393 6.23399C0.59393 5.20199 0.96593 4.31999 1.70993 3.58799C2.45393 2.84399 3.52793 2.38799 4.93193 2.21999V0.23999H7.09193V2.18399C7.77593 2.24399 8.42993 2.36399 9.05393 2.54399C9.68993 2.72399 10.2539 2.95799 10.7459 3.24599L9.64793 5.89199C8.44793 5.24399 7.28393 4.91999 6.15593 4.91999C5.44793 4.91999 4.93193 5.02799 4.60793 5.24399C4.28393 5.44799 4.12193 5.71799 4.12193 6.05399C4.12193 6.38999 4.31393 6.64199 4.69793 6.80999C5.08193 6.97799 5.69993 7.15199 6.55193 7.33199C7.51193 7.53599 8.30393 7.75799 8.92793 7.99799C9.56393 8.22599 10.1099 8.59799 10.5659 9.11399C11.0339 9.61799 11.2679 10.308 11.2679 11.184Z" fill="white"/>
</svg>
