<svg width="26" height="25" viewBox="0 0 26 25" fill="none" xmlns="http://www.w3.org/2000/svg">
<path d="M10.577 0H10.5804V0.00146078C13.5001 0.00229551 16.1439 1.17029 18.0571 3.05762C19.9671 4.94224 21.1504 7.54743 21.1523 10.4248H21.1537V10.4316V10.44H21.1523C21.1512 11.5996 20.9582 12.7157 20.6034 13.7564C20.5439 13.931 20.4817 14.0988 20.4178 14.2591V14.2606C20.1119 15.0243 19.7164 15.7464 19.2441 16.4114L25.3976 21.8662L25.4014 21.8695L25.4346 21.9L25.437 21.9023C25.7844 22.2285 25.9736 22.6653 25.9975 23.1085C26.0207 23.5467 25.8826 23.995 25.5787 24.3545L25.5764 24.3579L25.5394 24.4002L25.532 24.4075L25.5011 24.4409L25.4977 24.4453C25.1665 24.788 24.7245 24.9741 24.2747 24.9975C23.831 25.0207 23.3761 24.8848 23.0113 24.5847L23.0081 24.5824L22.965 24.5459L22.9588 24.5409L16.6651 18.962C16.4789 19.0914 16.2889 19.2143 16.0965 19.3303C15.8356 19.4878 15.5654 19.6362 15.2897 19.7717C13.8723 20.4691 12.2705 20.8614 10.5772 20.8614V20.8629H10.5738V20.8614C7.65407 20.8606 5.00982 19.6926 3.09662 17.8052C1.18596 15.9206 0.00338544 13.315 0.00148113 10.4385H0V10.4316V10.4283H0.00148113C0.00232749 7.54869 1.1866 4.94078 3.10022 3.05386C5.01109 1.17029 7.65259 0.00333893 10.57 0.00146078V0H10.577ZM10.5804 2.33933V2.3408H10.577H10.57V2.33933C8.30894 2.3408 6.25947 3.24711 4.7758 4.70976C3.29234 6.17242 2.37256 8.19581 2.37193 10.4285H2.37341V10.4318V10.4387H2.37193C2.37341 12.6687 3.29171 14.689 4.77538 16.1527C6.25842 17.616 8.31 18.5231 10.5736 18.5235V18.5221H10.577H10.584V18.5235C12.845 18.5221 14.8936 17.6162 16.3777 16.1531C17.8612 14.6904 18.781 12.6677 18.7814 10.4352H18.7801V10.4318V10.425H18.7814C18.7801 8.19498 17.861 6.17367 16.3781 4.71039C14.8951 3.24711 12.8442 2.33996 10.5804 2.33933Z" fill="#715F85"/>
</svg>
