<svg width="25" height="20" viewBox="0 0 25 20" fill="none" xmlns="http://www.w3.org/2000/svg">
<g clip-path="url(#clip0_19_1951)">
<path d="M12.1948 7.38729C12.0178 7.40153 11.8449 7.42188 11.676 7.44425C9.91008 7.69653 8.58561 8.45133 7.68636 9.47876C6.79309 10.5429 6.27414 11.871 6.20931 13.2589C6.18464 13.6712 6.19349 14.0849 6.23576 14.4958C6.84228 14.6418 7.38036 14.9914 7.76005 15.4864C8.13975 15.9814 8.33806 16.5917 8.32185 17.2153C8.30564 17.8389 8.07589 18.4381 7.67099 18.9126C7.2661 19.3872 6.71059 19.7084 6.0973 19.8226C5.48401 19.9369 4.85011 19.8371 4.30152 19.5401C3.75294 19.2431 3.32291 18.7668 3.08331 18.1908C2.84371 17.6148 2.80906 16.974 2.98513 16.3756C3.16121 15.7771 3.53735 15.2572 4.0507 14.9028L4.13208 14.8478C4.06574 14.2786 4.05008 13.7047 4.08529 13.1327C4.1772 11.2768 4.87791 9.50287 6.0791 8.08512C7.2998 6.67725 9.06372 5.65592 11.3688 5.32633C11.617 5.28971 11.8734 5.26327 12.1379 5.24292L10.8276 4.15039L12.1948 2.52279L16.4368 6.06079L12.6322 9.99552L11.1003 8.52051L12.1948 7.38729ZM21.0347 1.44857C21.5549 1.44796 22.0701 1.55029 22.5506 1.74967C23.031 1.94905 23.4673 2.24154 23.8342 2.61027C24.2025 2.97798 24.4946 3.41468 24.6939 3.89539C24.8932 4.3761 24.9958 4.89139 24.9958 5.41178C24.9958 5.93218 24.8932 6.44746 24.6939 6.92817C24.4946 7.40888 24.2025 7.84558 23.8342 8.2133C23.4667 8.58147 23.0302 8.87355 22.5496 9.07284C22.0691 9.27213 21.554 9.37471 21.0337 9.37471C20.5135 9.37471 19.9984 9.27213 19.5178 9.07284C19.0373 8.87355 18.6008 8.58147 18.2332 8.2133C17.4905 7.47012 17.0733 6.46245 17.0733 5.41178C17.0733 4.36112 17.4905 3.35344 18.2332 2.61027C18.6007 2.24166 19.0373 1.94927 19.5181 1.74991C19.9989 1.55055 20.5143 1.44814 21.0347 1.44857ZM22.6624 3.78418C22.285 3.40401 21.7875 3.16656 21.2546 3.11236C20.7217 3.05816 20.1865 3.19056 19.7404 3.48698C19.2942 3.7834 18.9648 4.22546 18.8083 4.73771C18.6517 5.24996 18.6778 5.80066 18.8821 6.29582C19.0863 6.79098 19.4561 7.19992 19.9282 7.45284C20.4004 7.70575 20.9457 7.78697 21.4711 7.68264C21.9965 7.57831 22.4694 7.29489 22.809 6.88075C23.1487 6.46661 23.3342 5.94742 23.3337 5.41178C23.3343 4.80174 23.0929 4.21638 22.6624 3.78418ZM12.1053 16.9983L13.8875 15.981L12.8703 14.1968L14.5406 13.2487L15.5579 15.0309L17.3421 14.0137L18.2902 15.684L16.508 16.7013L17.5252 18.4835L15.8488 19.4356L14.8315 17.6534L13.0493 18.6707L12.1053 16.9983ZM0 3.74552L1.78223 2.72827L0.764974 0.94401L2.44141 0L3.45866 1.78223L5.24089 0.764974L6.18286 2.44141L4.40063 3.45866L5.41789 5.24089L3.74349 6.18286L2.72624 4.40063L0.941976 5.41789L0 3.74552ZM6.41073 16.5934C6.28123 16.4041 6.09005 16.2656 5.8698 16.2015C5.64956 16.1373 5.41389 16.1516 5.20302 16.2419C4.99214 16.3322 4.81912 16.4928 4.71346 16.6964C4.60781 16.9 4.57608 17.134 4.62368 17.3584C4.67127 17.5828 4.79526 17.7837 4.97447 17.9269C5.15368 18.07 5.37702 18.1466 5.60638 18.1435C5.83575 18.1404 6.05692 18.0578 6.23217 17.9098C6.40743 17.7618 6.5259 17.5576 6.56738 17.3319C6.59114 17.2046 6.58952 17.0738 6.56264 16.9471C6.53576 16.8203 6.48414 16.7002 6.41073 16.5934Z" fill="white"/>
</g>
<defs>
<clipPath id="clip0_19_1951">
<rect width="25" height="19.8792" fill="white"/>
</clipPath>
</defs>
</svg>
