<svg width="30" height="30" viewBox="0 0 30 30" fill="none" xmlns="http://www.w3.org/2000/svg">
<path d="M19.8761 0H10.1239C4.53262 0 0 4.53262 0 10.1239V19.8761C0 25.4674 4.53262 30 10.1239 30H19.8761C25.4674 30 30 25.4674 30 19.8761V10.1239C30 4.53262 25.4674 0 19.8761 0Z" fill="white"/>
<path d="M0 15C0 6.71574 6.71574 0 15 0C23.2844 0 30 6.71574 30 15C30 23.2844 23.2844 30 15 30C6.71574 30 0 23.2844 0 15Z" fill="white"/>
<path d="M14.9952 6C17.826 8.53801 21.0723 8.3814 22 8.3814C21.7971 22.815 20.251 19.9528 14.9952 24C9.7391 19.9528 8.2029 22.815 8 8.3814C8.91785 8.3814 12.1642 8.53801 14.9952 6Z" stroke="#3375BB" stroke-width="2" stroke-miterlimit="10" stroke-linecap="round" stroke-linejoin="round"/>
</svg>
