<svg width="120" height="16" viewBox="0 0 120 16" fill="none" xmlns="http://www.w3.org/2000/svg">
<path d="M4.7216 3.66765H0V0.884902H12.8575V3.66765H8.13589V15.6402H4.7216V3.66765ZM16.0923 5.79651C16.4855 5.24835 17.0127 4.83369 17.673 4.55255C18.3473 4.27186 19.1201 4.13106 19.9914 4.13106V7.1667C19.6264 7.13845 19.3803 7.12432 19.2537 7.12432C18.3123 7.12432 17.5745 7.39134 17.0405 7.92538C16.5065 8.44529 16.2394 9.23222 16.2394 10.2862V15.6402H12.9514V4.29965H16.0923V5.79651ZM32.1891 4.29965V15.6402H29.0691V14.291C28.6335 14.7827 28.1136 15.1622 27.5094 15.4293C26.9052 15.6822 26.2518 15.8088 25.5491 15.8088C24.0596 15.8088 22.8794 15.3801 22.0082 14.5229C21.1369 13.6658 20.7013 12.3941 20.7013 10.7077V4.29965H23.9894V10.2228C23.9894 12.0496 24.7554 12.9632 26.2868 12.9632C27.0738 12.9632 27.7062 12.7103 28.1842 12.2041C28.6618 11.6842 28.9005 10.9186 28.9005 9.90661V4.29965H32.1891ZM37.786 15.8088C36.8441 15.8088 35.9237 15.6963 35.0247 15.4716C34.1252 15.2324 33.4084 14.9376 32.8744 14.5863L33.9707 12.2255C34.4765 12.5486 35.0876 12.8156 35.8043 13.0261C36.5211 13.2229 37.2237 13.3214 37.9122 13.3214C39.3034 13.3214 39.9992 12.9773 39.9992 12.2884C39.9992 11.9653 39.8092 11.7334 39.43 11.593C39.0505 11.4527 38.4672 11.3328 37.6803 11.2344C36.753 11.0941 35.987 10.9323 35.3828 10.75C34.7786 10.5673 34.2519 10.2438 33.8021 9.78039C33.3665 9.31652 33.1487 8.65627 33.1487 7.79871C33.1487 7.0824 33.3524 6.44994 33.7597 5.90177C34.1812 5.33948 34.7854 4.90387 35.5724 4.59493C36.3734 4.28599 37.3149 4.13106 38.3971 4.13106C39.1981 4.13106 39.9919 4.22265 40.7788 4.40537C41.5799 4.57397 42.2406 4.81273 42.7605 5.12167L41.6642 7.46151C40.6667 6.89968 39.5777 6.61853 38.3971 6.61853C37.6944 6.61853 37.1677 6.71696 36.8164 6.91335C36.465 7.1102 36.2891 7.36309 36.2891 7.67249C36.2891 8.0238 36.4792 8.2694 36.8583 8.4102C37.2378 8.55055 37.842 8.68406 38.6709 8.81074C39.5986 8.96521 40.3573 9.1338 40.9474 9.31653C41.5379 9.48512 42.0506 9.80135 42.4862 10.2652C42.9218 10.7286 43.1396 11.3752 43.1396 12.2041C43.1396 12.9067 42.9291 13.5323 42.5076 14.08C42.0857 14.6282 41.4673 15.057 40.6526 15.3659C39.8515 15.6612 38.896 15.8088 37.786 15.8088ZM51.2181 15.0921C50.895 15.3308 50.4945 15.5136 50.0165 15.6402C49.5531 15.7523 49.061 15.8088 48.5411 15.8088C47.1923 15.8088 46.1452 15.4644 45.4006 14.7758C44.6697 14.0873 44.3043 13.0753 44.3043 11.7407V7.0824H42.555V4.55255H44.3043V1.79168H47.5924V4.55255H50.417V7.0824H47.5924V11.6983C47.5924 12.1763 47.7122 12.5486 47.951 12.8156C48.2039 13.0685 48.5552 13.1951 49.0049 13.1951C49.5248 13.1951 49.9673 13.0543 50.3327 12.7732L51.2181 15.0921ZM79.0369 0.884902L74.21 15.6402H70.5424L67.2962 5.64888L63.9448 15.6402H60.2981L55.4503 0.884902H58.9913L62.3217 11.2558L65.7998 0.884902H68.9612L72.3341 11.3401L75.7698 0.884902H79.0369ZM83.1766 4.13106C84.9332 4.13106 86.2824 4.55255 87.2238 5.39598C88.1652 6.22484 88.6359 7.48247 88.6359 9.16889V15.6402H85.5584V14.2277C84.9405 15.2816 83.7881 15.8088 82.1017 15.8088C81.2305 15.8088 80.4718 15.6612 79.8252 15.3659C79.1927 15.0711 78.7079 14.6633 78.3707 14.1434C78.0335 13.6235 77.8649 13.0334 77.8649 12.3727C77.8649 11.3192 78.2586 10.4899 79.0455 9.88565C79.8462 9.28144 81.076 8.97933 82.7341 8.97933H85.3478C85.3478 8.26257 85.13 7.71441 84.6944 7.3353C84.2588 6.9416 83.6054 6.74475 82.7341 6.74475C82.1299 6.74475 81.5326 6.84318 80.9425 7.04002C80.3661 7.22274 79.8744 7.47564 79.467 7.79871L78.2864 5.50124C78.9047 5.06563 79.6425 4.72844 80.4996 4.48967C81.3708 4.25044 82.2634 4.13106 83.1766 4.13106ZM82.9237 13.5952C83.486 13.5952 83.985 13.469 84.4206 13.2161C84.8562 12.9491 85.1651 12.5627 85.3478 12.0569V10.8972H83.0923C81.7435 10.8972 81.0687 11.3401 81.0687 12.2255C81.0687 12.647 81.2305 12.9842 81.5535 13.2371C81.8907 13.4758 82.3477 13.5952 82.9237 13.5952ZM90.3474 0H93.6355V15.6402H90.3474V0ZM95.4226 0H98.7111V15.6402H95.4226V0ZM111.606 10.0119C111.606 10.0542 111.585 10.3495 111.543 10.8972H102.964C103.119 11.5999 103.484 12.1549 104.06 12.5627C104.637 12.97 105.353 13.1737 106.21 13.1737C106.801 13.1737 107.32 13.0894 107.77 12.9208C108.234 12.7381 108.662 12.4574 109.056 12.0779L110.805 13.9748C109.737 15.1973 108.178 15.8088 106.126 15.8088C104.847 15.8088 103.716 15.5628 102.732 15.0711C101.749 14.5649 100.99 13.8695 100.456 12.9842C99.9218 12.0988 99.6548 11.0941 99.6548 9.96994C99.6548 8.85994 99.915 7.86204 100.435 6.97669C100.969 6.07766 101.693 5.38186 102.606 4.8902C103.533 4.38395 104.566 4.13106 105.704 4.13106C106.815 4.13106 107.819 4.37028 108.718 4.84782C109.618 5.32581 110.321 6.01432 110.826 6.91335C111.346 7.79871 111.606 8.8317 111.606 10.0119ZM105.726 6.61853C104.981 6.61853 104.355 6.82905 103.85 7.25099C103.343 7.67248 103.034 8.24844 102.922 8.97933H108.508C108.395 8.26257 108.086 7.69345 107.58 7.27196C107.074 6.83634 106.456 6.61853 105.726 6.61853ZM119.845 15.0921C119.522 15.3308 119.121 15.5136 118.644 15.6402C118.18 15.7523 117.688 15.8088 117.168 15.8088C115.819 15.8088 114.772 15.4644 114.027 14.7758C113.297 14.0873 112.932 13.0753 112.932 11.7407V7.0824H111.182V4.55255H112.932V1.79168H116.22V4.55255H119.044V7.0824H116.22V11.6983C116.22 12.1763 116.339 12.5486 116.578 12.8156C116.831 13.0685 117.182 13.1951 117.632 13.1951C118.152 13.1951 118.595 13.0543 118.96 12.7732L119.845 15.0921Z" fill="white"/>
</svg>
