<svg width="57" height="48" viewBox="0 0 57 48" fill="none" xmlns="http://www.w3.org/2000/svg">
<path fill-rule="evenodd" clip-rule="evenodd" d="M42.0391 15.5581H50.5749V14.2553C49.2389 9.24518 45.8431 9.27787 41.6447 9.31989C40.9535 9.32923 40.3273 9.3339 40.2901 9.3339H8.38276C7.64979 9.3339 7.05599 8.73623 7.05599 7.99848C7.05599 7.26074 7.64979 6.66307 8.38276 6.66307H40.2901C41.2319 6.66307 41.4313 6.66307 41.6216 6.6584C45.2122 6.62104 48.3482 6.58836 50.5749 8.70354V8.09187C50.5749 6.5977 49.9672 5.24361 48.9884 4.25839C48.0095 3.27317 46.6596 2.66149 45.1797 2.66149H8.04411C6.55962 2.66149 5.21429 3.27317 4.23545 4.25839C3.25661 5.24361 2.6489 6.60237 2.6489 8.09187V39.208C2.6489 40.7021 3.25661 42.0562 4.23545 43.0415C5.21429 44.0267 6.56425 44.6383 8.04411 44.6383H45.1751C46.6596 44.6383 48.0049 44.0267 48.9837 43.0415C49.9626 42.0562 50.5703 40.6975 50.5703 39.208V34.7908H42.0344C39.4598 34.7908 37.117 33.7309 35.4238 32.0266C33.7305 30.3223 32.6775 27.9643 32.6775 25.3729V24.9667C32.6775 22.3752 33.7305 20.0172 35.4238 18.3129C37.1217 16.618 39.4598 15.5581 42.0391 15.5581ZM53.2238 15.6094C54.1841 15.7542 55.0423 16.2118 55.6964 16.8748C56.5036 17.6872 57 18.8079 57 20.0406V30.1262C57 31.4149 56.4804 32.5823 55.6408 33.4274C54.9959 34.0764 54.1563 34.5387 53.2238 34.7161V39.2126C53.2238 41.4399 52.3192 43.4664 50.8625 44.9325C49.4059 46.3987 47.3925 47.3092 45.1797 47.3092H8.04411C5.83128 47.3092 3.81794 46.3987 2.36128 44.9325C0.904615 43.471 0 41.4446 0 39.2173V8.09654C0 5.86929 0.904615 3.84282 2.36128 2.37667C3.81794 0.91051 5.83128 0 8.04411 0H45.1751C47.3879 0 49.4012 0.91051 50.8579 2.37667C52.3146 3.84282 53.2192 5.86929 53.2192 8.09654V15.6094H53.2238ZM40.8886 21.5301C42.7674 21.5301 44.289 23.0616 44.289 24.9527C44.289 26.8437 42.7674 28.3752 40.8886 28.3752C39.0098 28.3752 37.4882 26.8437 37.4882 24.9527C37.4882 23.0616 39.0098 21.5301 40.8886 21.5301Z" fill="white"/>
</svg>
