<svg width="30" height="25" viewBox="0 0 30 25" fill="none" xmlns="http://www.w3.org/2000/svg">
<path fill-rule="evenodd" clip-rule="evenodd" d="M22.124 8.13477H26.6162V7.45361C25.9131 4.83398 24.126 4.85107 21.9165 4.87305C21.5527 4.87793 21.2231 4.88037 21.2036 4.88037H4.41162C4.02588 4.88037 3.71338 4.56787 3.71338 4.18213C3.71338 3.79639 4.02588 3.48389 4.41162 3.48389H21.2036C21.6992 3.48389 21.8042 3.48389 21.9043 3.48145C23.7939 3.46191 25.4443 3.44482 26.6162 4.55078V4.23096C26.6162 3.44971 26.2964 2.7417 25.7813 2.22656C25.2661 1.71143 24.5557 1.3916 23.7769 1.3916H4.2334C3.45215 1.3916 2.74414 1.71143 2.229 2.22656C1.71387 2.7417 1.39404 3.45215 1.39404 4.23096V20.5005C1.39404 21.2817 1.71387 21.9897 2.229 22.5049C2.74414 23.02 3.45459 23.3398 4.2334 23.3398H23.7744C24.5557 23.3398 25.2637 23.02 25.7788 22.5049C26.2939 21.9897 26.6138 21.2793 26.6138 20.5005V18.1909H22.1216C20.7666 18.1909 19.5337 17.6367 18.6426 16.7456C17.7515 15.8545 17.1973 14.6216 17.1973 13.2666V13.0542C17.1973 11.6992 17.7515 10.4663 18.6426 9.5752C19.5361 8.68897 20.7666 8.13477 22.124 8.13477ZM28.0103 8.16162C28.5156 8.23731 28.9673 8.47656 29.3115 8.82324C29.7363 9.24805 29.9976 9.83398 29.9976 10.4785V15.752C29.9976 16.4258 29.7241 17.0361 29.2822 17.478C28.9429 17.8174 28.501 18.0591 28.0103 18.1519V20.5029C28.0103 21.6675 27.5342 22.7271 26.7676 23.4937C26.001 24.2603 24.9414 24.7363 23.7769 24.7363H4.2334C3.06885 24.7363 2.00928 24.2603 1.24268 23.4937C0.476074 22.7295 0 21.6699 0 20.5054V4.2334C0 3.06885 0.476074 2.00928 1.24268 1.24268C2.00928 0.476074 3.06885 0 4.2334 0H23.7744C24.939 0 25.9985 0.476074 26.7651 1.24268C27.5317 2.00928 28.0078 3.06885 28.0078 4.2334V8.16162H28.0103ZM21.5186 11.2573C22.5073 11.2573 23.3081 12.0581 23.3081 13.0469C23.3081 14.0356 22.5073 14.8364 21.5186 14.8364C20.5298 14.8364 19.729 14.0356 19.729 13.0469C19.729 12.0581 20.5298 11.2573 21.5186 11.2573Z" fill="#5C42E6"/>
</svg>
