<svg width="25" height="21" viewBox="0 0 25 21" fill="none" xmlns="http://www.w3.org/2000/svg">
<g clip-path="url(#clip0_20_2844)">
<path fill-rule="evenodd" clip-rule="evenodd" d="M18.4367 6.77897H22.1802V6.21134C21.5942 4.02832 20.105 4.04256 18.2638 4.06087C17.9606 4.06494 17.686 4.06698 17.6697 4.06698H3.67635C3.3549 4.06698 3.09448 3.80656 3.09448 3.48511C3.09448 3.16366 3.3549 2.90324 3.67635 2.90324H17.6697C18.0827 2.90324 18.1702 2.90324 18.2536 2.9012C19.8283 2.88493 21.2036 2.87069 22.1802 3.79232V3.5258C22.1802 2.87476 21.9137 2.28475 21.4844 1.85547C21.0551 1.42619 20.4631 1.15967 19.814 1.15967H3.52783C2.87679 1.15967 2.28678 1.42619 1.8575 1.85547C1.42822 2.28475 1.1617 2.87679 1.1617 3.5258V17.0837C1.1617 17.7348 1.42822 18.3248 1.8575 18.7541C2.28678 19.1834 2.87882 19.4499 3.52783 19.4499H19.812C20.4631 19.4499 21.0531 19.1834 21.4823 18.7541C21.9116 18.3248 22.1781 17.7327 22.1781 17.0837V15.1591H18.4347C17.3055 15.1591 16.2781 14.6973 15.5355 13.9547C14.7929 13.2121 14.3311 12.1847 14.3311 11.0555V10.8785C14.3311 9.74935 14.7929 8.72192 15.5355 7.97933C16.2801 7.2408 17.3055 6.77897 18.4367 6.77897ZM23.3419 6.80135C23.763 6.86442 24.1394 7.0638 24.4263 7.3527C24.7803 7.70671 24.998 8.19499 24.998 8.7321V13.1266C24.998 13.6882 24.7701 14.1968 24.4019 14.565C24.1191 14.8478 23.7508 15.0492 23.3419 15.1265V17.0858C23.3419 18.0562 22.9452 18.9392 22.3063 19.578C21.6675 20.2169 20.7845 20.6136 19.814 20.6136H3.52783C2.55737 20.6136 1.6744 20.2169 1.03556 19.578C0.396729 18.9412 0 18.0583 0 17.0878V3.52783C0 2.55737 0.396729 1.6744 1.03556 1.03556C1.6744 0.396729 2.55737 0 3.52783 0H19.812C20.7825 0 21.6654 0.396729 22.3043 1.03556C22.9431 1.6744 23.3398 2.55737 23.3398 3.52783V6.80135H23.3419ZM17.9321 9.3811C18.7561 9.3811 19.4234 10.0484 19.4234 10.8724C19.4234 11.6964 18.7561 12.3637 17.9321 12.3637C17.1082 12.3637 16.4408 11.6964 16.4408 10.8724C16.4408 10.0484 17.1082 9.3811 17.9321 9.3811Z" fill="white"/>
</g>
<defs>
<clipPath id="clip0_20_2844">
<rect width="25" height="20.6156" fill="white"/>
</clipPath>
</defs>
</svg>
