<svg width="17" height="12" viewBox="0 0 17 12" fill="none" xmlns="http://www.w3.org/2000/svg">
<path d="M16.32 3.4403C14.1557 1.27566 11.273 0.0836792 8.20382 0.0836792C5.13466 0.0836792 2.25226 1.27536 0.0876283 3.4403C-0.0292094 3.55714 -0.0292094 3.74599 0.0876283 3.86283C0.204466 3.97966 0.393319 3.97966 0.510157 3.86283C2.56184 1.81085 5.29423 0.681016 8.20382 0.681016C11.1134 0.681016 13.8458 1.81085 15.8975 3.86253C15.9557 3.9208 16.0322 3.95008 16.1087 3.95008C16.1852 3.95008 16.2617 3.9208 16.32 3.86253C16.4368 3.74599 16.4368 3.55684 16.32 3.4403Z" fill="white"/>
<path d="M1.8441 5.19642C1.72726 5.31326 1.72726 5.50211 1.8441 5.61895C1.90237 5.67722 1.97886 5.7065 2.05536 5.7065C2.13186 5.7065 2.20836 5.67722 2.26663 5.61895C5.54017 2.3451 10.8669 2.3451 14.1407 5.61895C14.2576 5.73579 14.4464 5.73579 14.5633 5.61895C14.6801 5.50211 14.6801 5.31326 14.5633 5.19642C11.0569 1.69009 5.35102 1.6895 1.8441 5.19642Z" fill="white"/>
<path d="M8.20386 5.04942C6.46325 5.04942 4.82871 5.72565 3.60087 6.95319C3.48404 7.07003 3.48404 7.25888 3.60087 7.37572C3.71771 7.49256 3.90656 7.49256 4.0234 7.37572C5.13829 6.26113 6.62282 5.64706 8.20386 5.64706C9.7849 5.64706 11.2694 6.26113 12.3843 7.37572C12.4426 7.43399 12.5191 7.46327 12.5956 7.46327C12.6721 7.46327 12.7486 7.43399 12.8068 7.37572C12.9237 7.25888 12.9237 7.07003 12.8068 6.95319C11.5793 5.72565 9.94447 5.04942 8.20386 5.04942Z" fill="white"/>
<path d="M8.20383 7.86069C7.1245 7.86069 6.24628 8.73891 6.24628 9.81854C6.24628 10.8982 7.1245 11.7764 8.20383 11.7764C9.28346 11.7764 10.1617 10.8982 10.1617 9.81854C10.1617 8.73891 9.28346 7.86069 8.20383 7.86069ZM8.20383 11.1785C7.4538 11.1785 6.84391 10.5683 6.84391 9.81824C6.84391 9.06821 7.4541 8.45802 8.20383 8.45802C8.95357 8.45802 9.56405 9.06821 9.56405 9.81824C9.56405 10.5683 8.95386 11.1785 8.20383 11.1785Z" fill="white"/>
</svg>
