<svg width="60" height="59" viewBox="0 0 60 59" fill="none" xmlns="http://www.w3.org/2000/svg">
<path d="M37.5601 16.224L30.3001 9.408L23.5201 16.224L18.4561 11.88L30.3001 0L42.0241 11.664L37.5601 16.224Z" fill="white"/>
<path d="M23.5201 16.224L30.3001 0L18.4561 11.88L23.5201 16.224Z" fill="white"/>
<path d="M42.0243 11.664L30.3003 0L37.5603 16.224L42.0243 11.664Z" fill="white"/>
<path d="M23.1241 42.384L30.3961 49.188L37.1761 42.384L41.8201 47.148L30.3961 58.6081L18.6602 46.944L23.1241 42.384Z" fill="white"/>
<path d="M30.3961 58.6081L18.6602 46.944L23.1241 42.384L30.3961 58.6081Z" fill="white"/>
<path d="M41.82 47.148L30.396 58.6081L37.176 42.384L41.82 47.148Z" fill="white"/>
<path d="M50.376 29.52L40.248 39.6361L44.952 44.3521L59.784 29.52L44.952 14.688L40.248 19.392L50.376 29.52Z" fill="white"/>
<path d="M40.248 39.636L59.784 29.52L44.952 44.3521L40.248 39.636Z" fill="white"/>
<path d="M59.784 29.52L40.248 19.392L44.952 14.688L59.784 29.52Z" fill="white"/>
<path d="M9.40801 29.52L19.536 19.392L14.832 14.688L0 29.52L14.832 44.3521L19.536 39.6361L9.40801 29.52Z" fill="white"/>
<path d="M19.536 39.636L0 29.52L14.832 44.3521L19.536 39.636Z" fill="white"/>
<path d="M19.536 19.392L0 29.52L14.832 14.688L19.536 19.392Z" fill="white"/>
<path d="M29.0398 34.248L24.4078 29.604L29.0398 24.972V15.408L14.9878 29.604L29.0398 43.656V34.248Z" fill="white"/>
<path d="M15 29.544L29.052 24.912V15.324L15 29.544Z" fill="white"/>
<path d="M29.052 34.188L15 29.544L29.052 43.596V34.188Z" fill="white"/>
<path d="M31.4399 34.236L36.0719 29.604L31.4399 24.96V15.396L45.4919 29.604L31.4399 43.644V34.236Z" fill="white"/>
<path d="M45.4919 29.604L31.4399 24.96V15.396L45.4919 29.604Z" fill="white"/>
<path d="M31.4761 43.5V34.2L45.5761 29.544L31.4761 43.5Z" fill="white"/>
</svg>
