<svg width="175" height="120" viewBox="0 0 175 120" fill="none" xmlns="http://www.w3.org/2000/svg">
<path d="M127.056 68.336C125.296 68.336 123.712 67.968 122.304 67.232C120.912 66.48 119.816 65.44 119.016 64.112C118.216 62.784 117.816 61.28 117.816 59.6C117.816 57.92 118.216 56.416 119.016 55.088C119.816 53.76 120.912 52.728 122.304 51.992C123.712 51.24 125.296 50.864 127.056 50.864C128.592 50.864 129.976 51.136 131.208 51.68C132.44 52.224 133.464 53.008 134.28 54.032L131.256 56.768C130.168 55.456 128.848 54.8 127.296 54.8C126.384 54.8 125.568 55 124.848 55.4C124.144 55.8 123.592 56.368 123.192 57.104C122.808 57.824 122.616 58.656 122.616 59.6C122.616 60.544 122.808 61.384 123.192 62.12C123.592 62.84 124.144 63.4 124.848 63.8C125.568 64.2 126.384 64.4 127.296 64.4C128.848 64.4 130.168 63.744 131.256 62.432L134.28 65.168C133.464 66.192 132.44 66.976 131.208 67.52C129.976 68.064 128.592 68.336 127.056 68.336ZM142.312 68.216C140.92 68.216 139.664 67.928 138.544 67.352C137.424 66.776 136.544 65.976 135.904 64.952C135.28 63.928 134.968 62.768 134.968 61.472C134.968 60.192 135.28 59.04 135.904 58.016C136.544 56.992 137.416 56.2 138.52 55.64C139.64 55.064 140.904 54.776 142.312 54.776C143.72 54.776 144.984 55.064 146.104 55.64C147.224 56.2 148.096 56.992 148.72 58.016C149.344 59.024 149.656 60.176 149.656 61.472C149.656 62.768 149.344 63.928 148.72 64.952C148.096 65.976 147.224 66.776 146.104 67.352C144.984 67.928 143.72 68.216 142.312 68.216ZM142.312 64.592C143.112 64.592 143.768 64.32 144.28 63.776C144.792 63.216 145.048 62.448 145.048 61.472C145.048 60.512 144.792 59.76 144.28 59.216C143.768 58.672 143.112 58.4 142.312 58.4C141.512 58.4 140.856 58.672 140.344 59.216C139.832 59.76 139.576 60.512 139.576 61.472C139.576 62.448 139.832 63.216 140.344 63.776C140.856 64.32 141.512 64.592 142.312 64.592ZM151.769 54.992H156.329V68H151.769V54.992ZM154.049 53.552C153.217 53.552 152.545 53.32 152.033 52.856C151.521 52.392 151.265 51.816 151.265 51.128C151.265 50.44 151.521 49.864 152.033 49.4C152.545 48.936 153.217 48.704 154.049 48.704C154.881 48.704 155.553 48.928 156.065 49.376C156.577 49.808 156.833 50.368 156.833 51.056C156.833 51.776 156.577 52.376 156.065 52.856C155.553 53.32 154.881 53.552 154.049 53.552ZM169.413 68L165.933 62.792L162.501 68H157.077L163.197 59.504L157.341 51.2H162.693L166.053 56.048L169.365 51.2H174.501L168.645 59.312L174.885 68H169.413Z" fill="white"/>
<g filter="url(#filter0_d_19_1766)">
<path d="M67.668 46.92L60.408 40.104L53.628 46.92L48.564 42.576L60.408 30.696L72.132 42.36L67.668 46.92Z" fill="white"/>
<path d="M53.628 46.92L60.408 30.696L48.564 42.576L53.628 46.92Z" fill="white"/>
<path d="M72.132 42.36L60.408 30.696L67.668 46.92L72.132 42.36Z" fill="white"/>
<path d="M53.2321 73.08L60.504 79.884L67.284 73.08L71.928 77.844L60.504 89.304L48.7681 77.64L53.2321 73.08Z" fill="white"/>
<path d="M60.504 89.304L48.7681 77.64L53.2321 73.08L60.504 89.304Z" fill="white"/>
<path d="M71.928 77.844L60.504 89.304L67.284 73.08L71.928 77.844Z" fill="white"/>
<path d="M80.484 60.2161L70.356 70.3321L75.06 75.0481L89.892 60.2161L75.06 45.384L70.356 50.088L80.484 60.2161Z" fill="white"/>
<path d="M70.356 70.3321L89.892 60.2161L75.06 75.0481L70.356 70.3321Z" fill="white"/>
<path d="M89.892 60.216L70.356 50.088L75.06 45.384L89.892 60.216Z" fill="white"/>
<path d="M39.516 60.2161L49.644 50.088L44.94 45.384L30.108 60.2161L44.94 75.0481L49.644 70.3321L39.516 60.2161Z" fill="white"/>
<path d="M49.644 70.3321L30.108 60.2161L44.94 75.0481L49.644 70.3321Z" fill="white"/>
<path d="M49.644 50.088L30.108 60.216L44.94 45.384L49.644 50.088Z" fill="white"/>
<path d="M59.148 64.944L54.5161 60.3L59.148 55.668V46.104L45.0961 60.3L59.148 74.352V64.944Z" fill="white"/>
<path d="M45.108 60.24L59.16 55.608V46.02L45.108 60.24Z" fill="white"/>
<path d="M59.16 64.884L45.108 60.24L59.16 74.292V64.884Z" fill="white"/>
<path d="M61.548 64.932L66.18 60.3L61.548 55.656V46.092L75.6 60.3L61.548 74.34V64.932Z" fill="white"/>
<path d="M75.6 60.3L61.548 55.656V46.092L75.6 60.3Z" fill="white"/>
<path d="M61.584 74.196V64.896L75.684 60.24L61.584 74.196Z" fill="white"/>
</g>
<defs>
<filter id="filter0_d_19_1766" x="0.108032" y="0.696045" width="119.784" height="118.608" filterUnits="userSpaceOnUse" color-interpolation-filters="sRGB">
<feFlood flood-opacity="0" result="BackgroundImageFix"/>
<feColorMatrix in="SourceAlpha" type="matrix" values="0 0 0 0 0 0 0 0 0 0 0 0 0 0 0 0 0 0 127 0" result="hardAlpha"/>
<feOffset/>
<feGaussianBlur stdDeviation="15"/>
<feComposite in2="hardAlpha" operator="out"/>
<feColorMatrix type="matrix" values="0 0 0 0 1 0 0 0 0 1 0 0 0 0 1 0 0 0 0.7 0"/>
<feBlend mode="normal" in2="BackgroundImageFix" result="effect1_dropShadow_19_1766"/>
<feBlend mode="normal" in="SourceGraphic" in2="effect1_dropShadow_19_1766" result="shape"/>
</filter>
</defs>
</svg>
